# xmcd
# 
# Track frame offsets:
#     150
#     12237
#     22462
#     35915
#     47472
#     62790
#     75215
#     95090
#     108992
#     120107
#     138597
#     149292
#     167162
#     182632
#     195185
#     210712
#     227622
#     243072
# 
# Disc length: 3557
# 
# Revision: 7
# Processed by: cddbd v1.5.2PL0 Copyright (c) Steve Scherf et al.
# Submitted via: fre:ac v1.0.31
# 
DISCID=eb0de312
DTITLE=Various Artist - Shimmy Down the Chimney
DYEAR=2004
DGENRE=Country
TTITLE0=Dwight Yoakam - Santa Claus is Back in Town
TTITLE1=Jo Dee Messina - Let It Snow! Let It Snow! Let It Snow!
TTITLE2=The Judds - Silver Bells
TTITLE3=Toby Keith - Christmas Rock
TTITLE4=Trace Adkins - The Christmas Song (Chestnuts Roasting On An Open Fire)
TTITLE5=Glen Cambell - I'll Be Home for Christmas
TTITLE6=Alison Krauss - Shimmy Down the Chimney
TTITLE7=Steve Wariner - Christmas In Your Arms
TTITLE8=Willie Nelson - Pretty Paper
TTITLE9=Tanya Tucker - What Child Is This?
TTITLE10=Merle Haggard - Jingle Bells
TTITLE11=Rosanne Cash - It Came Upon a Midnight Clear
TTITLE12=She Daisy - Deck The Halls
TTITLE13=Kenny Rogers - White Christmas
TTITLE14=Dolly Parton - Rudolph, The Red-Nosed Reindeer
TTITLE15=Del McCoury - Call Collect On Christmas
TTITLE16=Deana Carter - Carol Of The Bells
TTITLE17=John Berry - O Holy Night
EXTD=
EXTT0=
EXTT1=
EXTT2=
EXTT3=
EXTT4=
EXTT5=
EXTT6=
EXTT7=
EXTT8=
EXTT9=
EXTT10=
EXTT11=
EXTT12=
EXTT13=
EXTT14=
EXTT15=
EXTT16=
EXTT17=
PLAYORDER=
